<svg width="234" height="45" viewBox="0 0 234 45" fill="none" xmlns="http://www.w3.org/2000/svg">
<mask id="mask0_697_424" style="mask-type:luminance" maskUnits="userSpaceOnUse" x="0" y="0" width="233" height="44">
<path d="M232.609 0H0V43.5609H232.609V0Z" fill="white"/>
</mask>
<g mask="url(#mask0_697_424)">
<path d="M46.3471 17.0057L39.0642 12.9436V4.79261L30.4611 0L23.1781 4.06212L15.895 0L7.28299 4.79261V12.9703L0 17.0324V26.6532L7.28299 30.7154V38.804L15.895 43.6054L23.1781 39.5433L30.4611 43.6054L39.0642 38.804V30.7332L46.3471 26.6711V17.0057ZM17.2152 25.0854V18.52L23.169 15.1974L29.1138 18.52V25.0854L23.169 28.3992L17.2152 25.0854ZM24.4981 6.30697L30.4429 2.99313L36.3876 6.30697V12.9079L30.4429 16.2308L24.4981 12.9079V6.30697ZM9.93219 6.30697L15.8861 2.99313L21.8308 6.30697V12.9079L15.8861 16.2308L9.93219 12.9079V6.30697ZM2.64919 18.52L8.59394 15.1974L14.5478 18.52V25.0854L8.56662 28.4171L2.64919 25.1211V18.52ZM15.895 40.5857L9.94127 37.2719V30.6975L15.895 27.3837L21.8399 30.6975V37.2719L15.895 40.5857ZM30.4611 40.5857L24.5163 37.2719V30.6975L30.4611 27.3837L36.4059 30.6975V37.2719L30.4611 40.5857ZM43.698 25.1388L37.7805 28.4349L31.7994 25.1033V18.5379L37.7441 15.2151L43.698 18.5379V25.1388Z" fill="white"/>
<path d="M74.8612 11.0898V32.8614H72.1302V11.0898H74.8612Z" fill="white"/>
<path d="M97.8836 11.0898V32.8614H95.2799L83.1537 15.7666H82.9352V32.8614H80.2041V11.0898H82.8168L94.9794 28.2292H95.198V11.0898H97.8836Z" fill="white"/>
<path d="M104.183 11.0898L110.783 29.4139H111.047L117.647 11.0898H120.469L112.276 32.8614H109.527L101.333 11.0898H104.183Z" fill="white"/>
<path d="M123.947 32.8614V11.0898H137.375V13.4327H126.642V20.7909H136.656V23.1247H126.642V30.5185H137.566V32.8614H123.947Z" fill="white"/>
<path d="M142.236 32.8623V11.0908H149.756C151.234 11.043 152.703 11.3488 154.035 11.9816C155.091 12.5005 155.956 13.3287 156.511 14.3512C157.06 15.4164 157.335 16.5967 157.312 17.7897C157.336 18.9742 157.06 20.1462 156.511 21.2016C155.953 22.2094 155.092 23.0245 154.044 23.5354C152.718 24.1413 151.263 24.4284 149.801 24.3729H143.72V21.9943H149.71C150.696 22.0329 151.677 21.8596 152.587 21.4866C153.267 21.1903 153.825 20.6788 154.171 20.0346C154.516 19.3354 154.684 18.5656 154.662 17.7897C154.683 16.9986 154.51 16.2141 154.162 15.5002C153.819 14.8359 153.258 14.3029 152.569 13.9859C151.656 13.5929 150.661 13.41 149.665 13.4514H144.931V32.8801L142.236 32.8623ZM152.715 23.0634L158.176 32.8623H155.044L149.656 23.0634H152.715Z" fill="white"/>
<path d="M160.572 13.4327V11.0898H177.26V13.4327H170.268V32.8614H167.537V13.4327H160.572Z" fill="white"/>
<path d="M179.736 32.8614H176.913L185.107 11.0898H187.884L196.077 32.8614H193.245L186.6 14.5373H186.427L179.736 32.8614ZM180.783 24.3541H192.162V26.697H180.783V24.3541Z" fill="white"/>
<path d="M211.671 16.5333C211.619 16.0248 211.448 15.5349 211.172 15.1009C210.896 14.667 210.521 14.3007 210.078 14.0301C209.06 13.4083 207.873 13.0982 206.673 13.1393C205.788 13.1196 204.908 13.2772 204.087 13.6025C203.411 13.874 202.821 14.3168 202.376 14.8853C201.971 15.4243 201.758 16.078 201.767 16.747C201.749 17.277 201.899 17.7994 202.194 18.2437C202.482 18.6604 202.859 19.0126 203.295 19.2771C203.742 19.5441 204.215 19.7677 204.707 19.9452C205.199 20.1144 205.617 20.2569 206.063 20.3638L208.302 20.9874C208.961 21.1539 209.609 21.3591 210.242 21.6021C210.972 21.8694 211.664 22.2286 212.3 22.671C212.961 23.1259 213.513 23.7154 213.92 24.3993C214.37 25.1871 214.59 26.0806 214.557 26.9826C214.581 28.1073 214.265 29.2138 213.647 30.1627C212.973 31.1565 212.027 31.9438 210.915 32.4343C209.543 33.0255 208.053 33.3115 206.555 33.2718C205.142 33.3072 203.736 33.0492 202.431 32.5146C201.342 32.0685 200.399 31.3419 199.7 30.4122C199.029 29.4921 198.638 28.405 198.57 27.2766H201.357C201.401 28.0269 201.698 28.7416 202.203 29.3076C202.719 29.8584 203.372 30.2695 204.096 30.5013C204.891 30.766 205.725 30.8985 206.564 30.8932C207.515 30.9058 208.457 30.7363 209.34 30.3945C210.099 30.1072 210.767 29.6313 211.28 29.0137C211.761 28.4256 212.015 27.691 212 26.938C212.031 26.2888 211.809 25.6521 211.38 25.1565C210.929 24.6721 210.372 24.2944 209.75 24.0519C209.04 23.7543 208.31 23.5042 207.566 23.3035L204.834 22.5375C203.31 22.1592 201.897 21.4429 200.702 20.4441C200.199 19.9932 199.803 19.441 199.541 18.8257C199.278 18.2106 199.155 17.547 199.181 16.8807C199.155 15.7344 199.514 14.6113 200.201 13.6827C200.903 12.7499 201.845 12.0154 202.932 11.5536C204.146 11.0383 205.458 10.7803 206.783 10.7964C208.097 10.7727 209.402 11.028 210.606 11.5447C211.658 11.9932 212.573 12.6988 213.264 13.5936C213.915 14.4437 214.278 15.4716 214.302 16.5333H211.671Z" fill="white"/>
<path d="M219.008 32.8614V11.0898H232.436V13.4327H221.703V20.7909H231.717V23.1247H221.703V30.5185H232.628V32.8614H219.008Z" fill="white"/>
</g>
</svg>
